<?xml version="1.0" encoding="UTF-8" standalone="no"?>
<svg
   viewBox="0 0 515.34 673.26"
   version="1.1"
   id="svg3"
   sodipodi:docname="hyprwall.svg"
   inkscape:version="1.4 (e7c3feb100, 2024-10-09)"
   xmlns:inkscape="http://www.inkscape.org/namespaces/inkscape"
   xmlns:sodipodi="http://sodipodi.sourceforge.net/DTD/sodipodi-0.dtd"
   xmlns="http://www.w3.org/2000/svg"
   xmlns:svg="http://www.w3.org/2000/svg">
  <sodipodi:namedview
     id="namedview3"
     pagecolor="#ffffff"
     bordercolor="#000000"
     borderopacity="0.25"
     inkscape:showpageshadow="2"
     inkscape:pageopacity="0.0"
     inkscape:pagecheckerboard="0"
     inkscape:deskcolor="#d1d1d1"
     inkscape:zoom="1.0329044"
     inkscape:cx="327.23261"
     inkscape:cy="329.65297"
     inkscape:window-width="1916"
     inkscape:window-height="1056"
     inkscape:window-x="0"
     inkscape:window-y="20"
     inkscape:window-maximized="1"
     inkscape:current-layer="svg3" />
  <defs
     id="defs2">
    <style
       id="style1">
      .cls-1 {
        mix-blend-mode: difference;
      }

      .cls-2 {
        isolation: isolate;
      }

      .cls-3 {
        fill: url(#linear-gradient);
      }
    </style>
    <linearGradient
       id="linear-gradient"
       x1="8.93"
       y1="572.38"
       x2="572.68"
       y2="102.08"
       gradientUnits="userSpaceOnUse">
      <stop
         offset="0"
         stop-color="#00a2f8"
         id="stop1" />
      <stop
         offset="1"
         stop-color="#00e5cf"
         id="stop2" />
    </linearGradient>
    <filter
       style="color-interpolation-filters:sRGB;"
       inkscape:label="Invert"
       id="filter5"
       x="0"
       y="0"
       width="1"
       height="1">
      <feColorMatrix
         values="-1 0 0 0 1 0 -1 0 0 1 0 0 -1 0 1 -0.21 -0.72 -0.07 2 0 "
         result="color2"
         id="feColorMatrix5" />
    </filter>
  </defs>
  <g
     class="cls-2"
     id="g3"
     style="filter:url(#filter5)">
    <g
       id="Layer_2"
       data-name="Layer 2">
      <g
         id="Layer_1-2"
         data-name="Layer 1">
        <g
           class="cls-1"
           id="g2">
          <path
             class="cls-3"
             d="m 288.53,0 c 1.99,2.11 3.26,3.13 4.14,4.42 15.97,23.63 31.7,47.44 47.91,70.91 9.33,13.51 19.26,26.61 29.22,39.67 9.63,12.65 19.8,24.88 29.44,37.53 11.15,14.63 22.45,29.18 32.81,44.36 13.27,19.45 26.64,38.94 38.12,59.44 9.76,17.43 17.56,36.05 25.02,54.64 5.28,13.16 8.82,27.06 12.6,40.78 1.75,6.36 2.24,13.07 3.26,19.62 1.26,8.02 3.4,16.04 3.53,24.08 0.35,20.94 2.17,41.95 -1.48,62.8 -4.02,22.99 -10.75,45 -20.76,66.23 -10.12,21.45 -22.38,41.26 -37.39,59.59 -13.6,16.61 -29.57,30.33 -46.84,42.91 -12.68,9.23 -26.09,17.07 -40.36,23.3 -12.84,5.6 -26.07,10.09 -39.69,13.89 -30.75,8.56 -61.93,10.44 -93.33,8.23 -18.93,-1.33 -38.08,-3.65 -56.11,-10.46 -14.82,-5.6 -29.75,-11.13 -43.92,-18.13 -11.19,-5.52 -21.91,-12.44 -31.73,-20.15 C 90.09,613.55 77.45,602.85 66.3,590.92 56.31,580.24 47.66,568.05 39.9,555.61 31.72,542.48 24.51,528.6 18.32,514.41 11.63,499.09 7.31,482.96 3.79,466.44 -1.69,440.73 0.08,415 1.2,389.35 c 0.64,-14.73 4.53,-29.47 8.26,-43.86 3.93,-15.18 8.68,-30.26 14.44,-44.84 5.77,-14.6 12.47,-28.96 20.14,-42.65 9.63,-17.18 20.25,-33.85 31.2,-50.23 9.94,-14.88 20.68,-29.24 31.47,-43.52 8.69,-11.5 18.17,-22.41 26.97,-33.83 8.9,-11.55 17.46,-23.36 26.07,-35.13 9.11,-12.46 18.29,-24.87 27.09,-37.55 11.16,-16.07 21.91,-32.43 32.97,-48.57 1.58,-2.31 3.88,-4.14 5.84,-6.19 0.39,0.22 0.78,0.44 1.18,0.66 0.08,1.77 0.23,3.54 0.23,5.31 0.01,26.33 0.15,52.66 -0.17,78.99 -0.05,3.86 -1.62,8.15 -3.72,11.46 -8.5,13.45 -17.19,26.8 -26.38,39.79 -8.71,12.31 -18.12,24.13 -27.22,36.16 -7.5,9.91 -14.97,19.83 -22.52,29.7 -23.9386,28.53362 -25.1073,10.97942 -30.2273,17.91942 -7.16,9.72 0.0173,21.97058 -6.6627,32.02058 -5.49435,12.63313 -24.88427,15.97886 -32.12427,28.58886 -5.18,9.02 -0.36573,27.07114 -4.69573,36.55114 -2.4,5.26 -4.61,10.64 -6.36,16.14 -3.1,9.76 -5.58,19.71 -8.68,29.47 -8.72,27.42 -6.87,55.63 -4.92,83.5 0.99,14.15 6.11,28.15 10.4,41.89 6.01,19.24 16.32,36.3 27.95,52.74 7.94,11.23 16.95,21.38 27.14,30.36 8.39,7.38 17.5,14.17 27.07,19.92 10.89,6.54 22.23,12.77 34.12,17.07 12.69,4.59 26.1,7.99 39.48,9.68 15.93,2.01 32.16,1.58 48.25,2.34 14.94,0.7 29.43,-2.29 43.93,-5.14 18.41,-3.62 35.23,-11.56 51.58,-20.26 19.55,-10.4 35.98,-25.13 50.37,-41.73 14.71,-16.97 27.06,-36.05 34.92,-57 8.29,-22.1 15.2,-44.97 14.15,-69.26 -0.57,-13.13 0.15,-26.34 -1.06,-39.39 -0.89,-9.61 -3.62,-19.11 -6.16,-28.5 -2.98,-11.03 -6.03,-22.1 -10.16,-32.73 -4.11,-10.59 -9.36,-20.75 -14.52,-30.9 -4.57,-8.99 -9.32,-17.92 -14.66,-26.46 -6.5,-10.39 -11.8277,-19.74329 -19.1277,-29.58329 10.68223,-28.58848 -7.7091,-15.13218 -18.8791,-29.93218 C 365.0932,195.02453 335.46,162.64 322.82,144.99 311.91,129.77 301.51,114.18 291.11,98.6 c -1.67,-2.5 -3,-5.79 -3.03,-8.72 -0.23,-28.49 -0.15,-56.98 -0.13,-85.47 0,-0.95 0.24,-1.91 0.58,-4.44 z"
             id="path2"
             sodipodi:nodetypes="cccccccccccccccccccccccccccccccccccccccccccccccccsccccccccccccccccccccccccc" />
        </g>
      </g>
    </g>
  </g>
  <g
     id="g5"
     transform="matrix(0.78915882,0,0,0.78915882,49.071718,210.13678)">
	<path
   d="M 431.5,0 H 95.5 C 82.542,0 72,10.542 72,23.5 V 64 H 63.5 C 41.72,64 24,81.72 24,103.5 v 64 c 0,21.78 17.72,39.5 39.5,39.5 h 168 c 13.509,0 24.5,10.991 24.5,24.5 V 256 h -32.5 c -12.958,0 -23.5,10.542 -23.5,23.5 0,12.958 10.542,23.5 23.5,23.5 h 0.5 v 129 h -0.5 c -12.958,0 -23.5,10.542 -23.5,23.5 0,12.958 10.542,23.5 23.5,23.5 h 80 C 316.458,479 327,468.458 327,455.5 327,442.542 316.458,432 303.5,432 H 303 V 303 h 0.5 C 316.458,303 327,292.458 327,279.5 327,266.542 316.458,256 303.5,256 H 271 V 231.5 C 271,209.72 253.28,192 231.5,192 H 63.5 C 49.991,192 39,181.009 39,167.5 v -64 C 39,89.991 49.991,79 63.5,79 H 72 v 40.5 c 0,12.958 10.542,23.5 23.5,23.5 h 336 c 12.958,0 23.5,-10.542 23.5,-23.5 v -96 C 455,10.542 444.458,0 431.5,0 Z M 312,279.5 c 0,4.687 -3.813,8.5 -8.5,8.5 h -8 c -4.142,0 -7.5,3.358 -7.5,7.5 v 144 c 0,4.142 3.358,7.5 7.5,7.5 h 8 c 4.687,0 8.5,3.813 8.5,8.5 0,4.687 -3.813,8.5 -8.5,8.5 h -80 c -4.687,0 -8.5,-3.813 -8.5,-8.5 0,-4.687 3.813,-8.5 8.5,-8.5 h 8 40 c 4.142,0 7.5,-3.358 7.5,-7.5 0,-4.142 -3.358,-7.5 -7.5,-7.5 H 239 V 303 h 32.5 c 4.142,0 7.5,-3.358 7.5,-7.5 0,-4.142 -3.358,-7.5 -7.5,-7.5 h -40 -8 c -4.687,0 -8.5,-3.813 -8.5,-8.5 0,-4.687 3.813,-8.5 8.5,-8.5 h 80 c 4.687,0 8.5,3.813 8.5,8.5 z m 128,-160 c 0,4.687 -3.813,8.5 -8.5,8.5 h -336 c -4.687,0 -8.5,-3.813 -8.5,-8.5 v -96 C 87,18.813 90.813,15 95.5,15 h 336 c 4.687,0 8.5,3.813 8.5,8.5 z"
   id="path1" />

	<path
   d="m 271.5,312 c -4.142,0 -7.5,3.358 -7.5,7.5 v 8 c 0,4.142 3.358,7.5 7.5,7.5 4.142,0 7.5,-3.358 7.5,-7.5 v -8 c 0,-4.142 -3.358,-7.5 -7.5,-7.5 z"
   id="path2-3" />

	<path
   d="m 271.5,344 c -4.142,0 -7.5,3.358 -7.5,7.5 v 40 c 0,4.142 3.358,7.5 7.5,7.5 4.142,0 7.5,-3.358 7.5,-7.5 v -40 c 0,-4.142 -3.358,-7.5 -7.5,-7.5 z"
   id="path3" />

	<path
   d="m 359.5,24 h -192 c -4.142,0 -7.5,3.358 -7.5,7.5 0,4.142 3.358,7.5 7.5,7.5 h 192 c 4.142,0 7.5,-3.358 7.5,-7.5 0,-4.142 -3.358,-7.5 -7.5,-7.5 z"
   id="path4" />

	<path
   d="m 391.5,24 h -8 c -4.142,0 -7.5,3.358 -7.5,7.5 0,4.142 3.358,7.5 7.5,7.5 h 8 c 4.142,0 7.5,-3.358 7.5,-7.5 0,-4.142 -3.358,-7.5 -7.5,-7.5 z"
   id="path5" />

</g>
</svg>
