<?xml version="1.0" encoding="UTF-8" standalone="no"?>
<!-- Created with Inkscape (http://www.inkscape.org/) -->

<!--
The Hyprland Logo is licensed under BSD 3-Clause License.
Copyright (c) 2022-2024, vaxerski
All rights reserved.
-->

<svg
   width="32"
   height="32"
   viewBox="0 0 32 32"
   version="1.1"
   id="svg5"
   xml:space="preserve"
   inkscape:version="1.4 (e7c3feb100, 2024-10-09)"
   sodipodi:docname="hyprwall.svg"
   xmlns:inkscape="http://www.inkscape.org/namespaces/inkscape"
   xmlns:sodipodi="http://sodipodi.sourceforge.net/DTD/sodipodi-0.dtd"
   xmlns:xlink="http://www.w3.org/1999/xlink"
   xmlns="http://www.w3.org/2000/svg"
   xmlns:svg="http://www.w3.org/2000/svg"><sodipodi:namedview
     id="namedview7"
     pagecolor="#505050"
     bordercolor="#eeeeee"
     borderopacity="1"
     inkscape:showpageshadow="0"
     inkscape:pageopacity="0"
     inkscape:pagecheckerboard="0"
     inkscape:deskcolor="#505050"
     inkscape:document-units="px"
     showgrid="false"
     inkscape:zoom="22.627417"
     inkscape:cx="19.821087"
     inkscape:cy="16.241359"
     inkscape:window-width="1916"
     inkscape:window-height="1056"
     inkscape:window-x="0"
     inkscape:window-y="20"
     inkscape:window-maximized="1"
     inkscape:current-layer="layer5"
     inkscape:lockguides="false"
     showguides="false"><sodipodi:guide
       position="-0.8125,15.328125"
       orientation="1,0"
       id="guide5316"
       inkscape:locked="false" /></sodipodi:namedview><defs
     id="defs2"><linearGradient
       id="linearGradient8"
       inkscape:collect="always"><stop
         style="stop-color:#003137;stop-opacity:0.52263927;"
         offset="0"
         id="stop7" /><stop
         style="stop-color:#000000;stop-opacity:0;"
         offset="1"
         id="stop8" /></linearGradient><linearGradient
       id="linearGradient3"
       inkscape:collect="always"><stop
         style="stop-color:#3365ff;stop-opacity:0.52263927;"
         offset="0"
         id="stop2" /><stop
         style="stop-color:#000000;stop-opacity:0;"
         offset="1"
         id="stop3" /></linearGradient><linearGradient
       id="linearGradient12"
       inkscape:collect="always"><stop
         style="stop-color:#370000;stop-opacity:0.52263927;"
         offset="0"
         id="stop12" /><stop
         style="stop-color:#000000;stop-opacity:0;"
         offset="1"
         id="stop13" /></linearGradient><linearGradient
       id="swatch11"><stop
         style="stop-color:#000000;stop-opacity:1;"
         offset="0"
         id="stop11" /></linearGradient><inkscape:path-effect
       effect="perspective-envelope"
       up_left_point="6.5003853,9.7304418"
       up_right_point="12.447779,8.7423047"
       down_left_point="6.5003853,17.104334"
       down_right_point="12.447779,18.092471"
       id="path-effect5157"
       is_visible="true"
       lpeversion="1"
       deform_type="perspective"
       horizontal_mirror="true"
       vertical_mirror="false"
       overflow_perspective="false" /><inkscape:path-effect
       effect="bspline"
       id="path-effect3539"
       is_visible="true"
       lpeversion="1"
       weight="33.333333"
       steps="2"
       helper_size="0"
       apply_no_weight="true"
       apply_with_weight="true"
       only_selected="false" /><linearGradient
       id="linearGradient18454"
       inkscape:swatch="solid"><stop
         style="stop-color:#000000;stop-opacity:1;"
         offset="0"
         id="stop18452" /></linearGradient><linearGradient
       id="linearGradient6192"
       inkscape:swatch="solid"><stop
         style="stop-color:#000000;stop-opacity:1;"
         offset="0"
         id="stop6190" /></linearGradient><inkscape:perspective
       sodipodi:type="inkscape:persp3d"
       inkscape:vp_x="0 : 16 : 1"
       inkscape:vp_y="0 : 1000 : 0"
       inkscape:vp_z="32 : 16 : 1"
       inkscape:persp3d-origin="16 : 10.666667 : 1"
       id="perspective5130" /><style
       id="style3134">
      .cls-1 {
        mix-blend-mode: difference;
      }

      .cls-2 {
        isolation: isolate;
      }

      .cls-3 {
        fill: url(#linear-gradient);
      }
    </style><linearGradient
       id="linear-gradient"
       x1="8.93"
       y1="572.38"
       x2="572.68"
       y2="102.08"
       gradientUnits="userSpaceOnUse"
       gradientTransform="translate(-266.51526,-317.16468)"><stop
         offset="0"
         stop-color="#00a2f8"
         id="stop3136" /><stop
         offset="1"
         stop-color="#00e5cf"
         id="stop3138" /></linearGradient><linearGradient
       inkscape:collect="always"
       xlink:href="#linearGradient3"
       id="linearGradient13"
       x1="3.9108739"
       y1="16.105642"
       x2="29.480017"
       y2="16.105642"
       gradientUnits="userSpaceOnUse" /><linearGradient
       inkscape:collect="always"
       xlink:href="#linearGradient12"
       id="linearGradient28"
       gradientUnits="userSpaceOnUse"
       x1="3.9108739"
       y1="16.105642"
       x2="29.480017"
       y2="16.105642"
       gradientTransform="translate(0.26516504,-1.9646788)" /><linearGradient
       inkscape:collect="always"
       xlink:href="#linearGradient12"
       id="linearGradient29"
       gradientUnits="userSpaceOnUse"
       x1="3.9108739"
       y1="16.105642"
       x2="29.480017"
       y2="16.105642"
       gradientTransform="translate(0.26516504,-1.9646788)" /><linearGradient
       inkscape:collect="always"
       xlink:href="#linearGradient12"
       id="linearGradient30"
       gradientUnits="userSpaceOnUse"
       x1="3.9108739"
       y1="16.105642"
       x2="29.480017"
       y2="16.105642"
       gradientTransform="translate(0.26516504,-1.9646788)" /><linearGradient
       inkscape:collect="always"
       xlink:href="#linearGradient12"
       id="linearGradient31"
       gradientUnits="userSpaceOnUse"
       x1="3.9108739"
       y1="16.105642"
       x2="29.480017"
       y2="16.105642"
       gradientTransform="translate(0.26516504,-1.9646788)" /><linearGradient
       inkscape:collect="always"
       xlink:href="#linearGradient12"
       id="linearGradient32"
       gradientUnits="userSpaceOnUse"
       x1="3.9108739"
       y1="16.105642"
       x2="29.480017"
       y2="16.105642"
       gradientTransform="translate(0.26516504,-1.9646788)" /><linearGradient
       inkscape:collect="always"
       xlink:href="#linearGradient12"
       id="linearGradient33"
       gradientUnits="userSpaceOnUse"
       x1="3.9108739"
       y1="16.105642"
       x2="29.480017"
       y2="16.105642"
       gradientTransform="translate(0.26516504,-1.9646788)" /><linearGradient
       inkscape:collect="always"
       xlink:href="#linearGradient12"
       id="linearGradient34"
       gradientUnits="userSpaceOnUse"
       x1="3.9108739"
       y1="16.105642"
       x2="29.480017"
       y2="16.105642"
       gradientTransform="translate(0.26516504,-1.9646788)" /><linearGradient
       inkscape:collect="always"
       xlink:href="#linearGradient12"
       id="linearGradient35"
       gradientUnits="userSpaceOnUse"
       x1="3.9108739"
       y1="16.105642"
       x2="29.480017"
       y2="16.105642"
       gradientTransform="translate(0.26516504,-1.9646788)" /><linearGradient
       inkscape:collect="always"
       xlink:href="#linearGradient12"
       id="linearGradient36"
       gradientUnits="userSpaceOnUse"
       x1="3.9108739"
       y1="16.105642"
       x2="29.480017"
       y2="16.105642"
       gradientTransform="translate(0.26516504,-1.9646788)" /><linearGradient
       inkscape:collect="always"
       xlink:href="#linearGradient12"
       id="linearGradient37"
       gradientUnits="userSpaceOnUse"
       x1="3.9108739"
       y1="16.105642"
       x2="29.480017"
       y2="16.105642"
       gradientTransform="translate(0.26516504,-1.9646788)" /><linearGradient
       inkscape:collect="always"
       xlink:href="#linearGradient12"
       id="linearGradient38"
       gradientUnits="userSpaceOnUse"
       x1="3.9108739"
       y1="16.105642"
       x2="29.480017"
       y2="16.105642"
       gradientTransform="translate(0.26516504,-1.9646788)" /><linearGradient
       inkscape:collect="always"
       xlink:href="#linearGradient8"
       id="linearGradient39"
       gradientUnits="userSpaceOnUse"
       x1="3.9108739"
       y1="16.105642"
       x2="29.480017"
       y2="16.105642"
       gradientTransform="translate(0.26516504,-1.9646788)" /><linearGradient
       inkscape:collect="always"
       xlink:href="#linearGradient12"
       id="linearGradient40"
       gradientUnits="userSpaceOnUse"
       x1="3.9108739"
       y1="16.105642"
       x2="29.480017"
       y2="16.105642"
       gradientTransform="translate(0.26516504,-1.9646788)" /><linearGradient
       inkscape:collect="always"
       xlink:href="#linearGradient12"
       id="linearGradient41"
       gradientUnits="userSpaceOnUse"
       x1="3.9108739"
       y1="16.105642"
       x2="29.480017"
       y2="16.105642"
       gradientTransform="translate(0.26516504,-1.9646788)" /><linearGradient
       inkscape:collect="always"
       xlink:href="#linearGradient12"
       id="linearGradient42"
       gradientUnits="userSpaceOnUse"
       x1="3.9108739"
       y1="16.105642"
       x2="29.480017"
       y2="16.105642"
       gradientTransform="translate(0.26516504,-1.9646788)" /><filter
       style="color-interpolation-filters:sRGB;"
       inkscape:label="Invert"
       id="filter4"
       x="0"
       y="0"
       width="1"
       height="1"><feColorMatrix
         values="-1 0 0 0 1 0 -1 0 0 1 0 0 -1 0 1 -0.21 -0.72 -0.07 1.38 0 "
         result="color2"
         id="feColorMatrix4" /></filter></defs><g
     inkscape:groupmode="layer"
     id="layer5"
     inkscape:label="Wall"
     style="display:inline;fill:url(#linearGradient13);fill-opacity:1"
     transform="translate(-0.7831485,2.0718495)"><path
       id="rect5707-2"
       style="display:inline;fill:url(#linearGradient39);fill-opacity:1;stroke:#9a9797;stroke-width:0.161227;stroke-dasharray:none;stroke-opacity:1;paint-order:fill markers stroke"
       d="M 4.4643929,9.6068522 29.63832,4.7594826 29.351265,23.54342 4.2582925,17.743803 Z"
       sodipodi:nodetypes="ccccc"
       inkscape:label="Frame" /><path
       id="rect5707-27-9"
       style="display:inline;fill:url(#linearGradient28);fill-opacity:1;stroke:#9a9797;stroke-width:0.161227;stroke-dasharray:none;stroke-opacity:1;paint-order:fill markers stroke"
       d="m 22.811524,14.09 6.682388,0.190092 -0.08421,4.450273 -6.800517,-0.817958 z"
       sodipodi:nodetypes="ccccc"
       inkscape:label="Right Plane" /><path
       id="rect5707-27-0"
       style="display:inline;fill:url(#linearGradient31);fill-opacity:1;stroke:#9a9797;stroke-width:0.161227;stroke-dasharray:none;stroke-opacity:1;paint-order:fill markers stroke"
       d="m 10.743764,13.763627 12.078769,0.329047 -0.210716,3.821744 -12.01797,-1.441441 z"
       sodipodi:nodetypes="ccccc"
       inkscape:label="Mid Plane" /><path
       id="rect5707-27"
       style="display:inline;fill:url(#linearGradient30);fill-opacity:1;stroke:#9a9797;stroke-width:0.161227;stroke-dasharray:none;stroke-opacity:1;paint-order:fill markers stroke"
       d="m 4.376285,13.511008 6.347702,0.270524 -0.101285,2.688736 -6.2835823,-0.65643 z"
       sodipodi:nodetypes="ccccc"
       inkscape:label="Left Plane" /><path
       id="rect5707-6-9"
       style="display:inline;fill:url(#linearGradient33);fill-opacity:1;stroke:#9a9797;stroke-width:0.161227;stroke-dasharray:none;stroke-opacity:1;paint-order:fill markers stroke"
       d="M 16.657649,11.004894 29.557844,10.019376 29.495404,14.273048 16.55291,13.959117 Z"
       sodipodi:nodetypes="ccccc"
       inkscape:label="MidRight Plane" /><path
       id="rect5707-6"
       style="display:inline;fill:url(#linearGradient32);fill-opacity:1;stroke:#9a9797;stroke-width:0.161227;stroke-dasharray:none;stroke-opacity:1;paint-order:fill markers stroke"
       d="M 16.580487,13.930241 16.672977,10.984685 16.5518,13.931348 4.3211101,13.523341 Z"
       sodipodi:nodetypes="ccccc"
       inkscape:label="MidLeft Plane" /><path
       id="rect6980-6"
       style="display:inline;fill:url(#linearGradient35);fill-opacity:1;stroke:#9a9797;stroke-width:0.161227;stroke-dasharray:none;stroke-opacity:1;paint-order:fill markers stroke"
       d="m 23.172757,5.9903439 6.48964,-1.2547413 -0.114878,5.2371344 -6.319926,0.512489 z"
       sodipodi:nodetypes="ccccc"
       inkscape:label="TopRight Plane" /><path
       id="rect6980"
       style="display:inline;fill:url(#linearGradient34);fill-opacity:1;stroke:#9a9898;stroke-width:0.161227;stroke-dasharray:none;stroke-opacity:1;paint-order:fill markers stroke"
       d="M 10.889247,8.3019132 23.270962,5.9676284 23.251491,10.495847 10.969942,11.422473 Z"
       sodipodi:nodetypes="ccccc"
       inkscape:label="TopMid Plane" /><path
       id="rect5707"
       style="display:inline;fill:url(#linearGradient29);fill-opacity:1;stroke:#9a9797;stroke-width:0.161227;stroke-dasharray:none;stroke-opacity:1;paint-order:fill markers stroke"
       d="M 4.5071303,9.6296362 11.051469,8.2637152 11.015119,11.43201 4.4369462,12.0278 Z"
       sodipodi:nodetypes="ccccc"
       inkscape:label="TopLeft Plane" /><path
       id="rect7091-5-61"
       style="display:inline;fill:url(#linearGradient40);fill-opacity:1;stroke-width:8.06133;stroke-opacity:0.176538;paint-order:fill markers stroke"
       d="m 16.151204,17.037948 0.374098,0.06623 -0.06475,3.561732 -0.489722,-0.113056 z"
       sodipodi:nodetypes="ccccc"
       inkscape:label="Bar 5" /><path
       id="rect7091-5-62"
       style="display:inline;fill:url(#linearGradient38);fill-opacity:1;stroke-width:8.06133;stroke-opacity:0.176538;paint-order:fill markers stroke"
       d="m 22.496863,13.987592 0.439526,0.01718 -0.191382,4.007636 -0.470528,-0.05555 z"
       sodipodi:nodetypes="ccccc"
       inkscape:label="Bar 4" /><path
       id="rect7091-5-6"
       style="display:inline;fill:url(#linearGradient37);fill-opacity:1;stroke-width:8.06133;stroke-opacity:0.176538;paint-order:fill markers stroke"
       d="m 10.489013,13.632931 0.336549,0.01867 -0.0251,2.925534 -0.474914,-0.04697 z"
       sodipodi:nodetypes="ccccc"
       inkscape:label="Bar 3" /><path
       id="rect7091-5"
       style="display:inline;fill:url(#linearGradient36);fill-opacity:1;stroke-width:8.06133;stroke-opacity:0.176538;paint-order:fill markers stroke"
       d="m 16.347193,10.926364 0.407411,-0.03374 -0.01688,3.152497 -0.472559,-0.0098 z"
       sodipodi:nodetypes="ccccc"
       inkscape:label="Bar 2" /><path
       id="rect7091-3"
       style="display:inline;fill:url(#linearGradient42);fill-opacity:1;stroke-width:8.06133;stroke-opacity:0.176538;paint-order:fill markers stroke"
       d="m 23.047854,5.9309269 0.335906,-0.071802 0.0015,4.7130911 -0.272424,0.02319 z"
       sodipodi:nodetypes="ccccc"
       inkscape:label="Bar 1" /><path
       id="rect7091"
       style="display:inline;fill:url(#linearGradient41);fill-opacity:1;stroke-width:8.06133;stroke-opacity:0.176538;paint-order:fill markers stroke"
       d="m 10.769997,8.242759 0.381144,-0.07802 0.01248,3.327442 -0.349981,0.03589 z"
       sodipodi:nodetypes="ccccc"
       inkscape:label="Bar 0" /></g><g
     inkscape:groupmode="layer"
     id="layer4"
     inkscape:label="Hyprland Logo"><path
       class="cls-3"
       d="m 9.8248782,9.1944699 c 0.022099,0.024648 0.036498,0.036237 0.045993,0.051714 0.1733671,0.2856965 0.3459811,0.5778192 0.5272341,0.8691329 0.10548,0.169547 0.219824,0.334771 0.33559,0.500906 0.112885,0.162325 0.234184,0.32031 0.349214,0.485459 0.134292,0.192784 0.272035,0.386432 0.397814,0.590516 0.162822,0.264282 0.32896,0.532328 0.469526,0.816594 0.120641,0.243993 0.213126,0.505089 0.30137,0.767223 0.06279,0.186572 0.09991,0.382372 0.140789,0.576482 0.01896,0.09017 0.01926,0.183716 0.02743,0.275747 0.01012,0.112771 0.03317,0.226884 0.02687,0.338467 -0.01624,0.290393 -0.01114,0.584051 -0.08531,0.865016 -0.0813,0.308092 -0.199908,0.594968 -0.363109,0.861116 -0.163048,0.265742 -0.352075,0.50091 -0.574389,0.705921 -0.198333,0.182915 -0.422246,0.318879 -0.658198,0.434219 -0.170596,0.08331 -0.34695,0.145759 -0.530201,0.18455 -0.1627,0.03437 -0.3271384,0.05334 -0.4935611,0.0624 C 9.374021,17.599716 9.0170581,17.537191 8.6708452,17.427183 8.4667824,17.362369 8.2645076,17.28649 8.0805002,17.162458 7.9313589,17.061898 7.7829112,16.963145 7.6449647,16.850563 7.537163,16.762683 7.4359447,16.660775 7.3449315,16.55274 7.2266282,16.412351 7.1122341,16.267278 7.0139237,16.112784 6.9265512,15.975584 6.8533676,15.825102 6.7890941,15.674337 6.7217487,15.516156 6.6642078,15.352191 6.6164995,15.187171 6.565157,15.009793 6.5360947,14.827517 6.5146169,14.642454 c -0.033364,-0.287304 -0.00101,-0.566625 0.025487,-0.846471 0.015215,-0.161013 0.060136,-0.319845 0.1035501,-0.475575 0.045935,-0.164941 0.099591,-0.32898 0.1625848,-0.48773 0.063456,-0.159863 0.1358775,-0.317586 0.2175303,-0.468482 0.1033505,-0.190909 0.2168799,-0.377608 0.3345739,-0.562831 0.1078956,-0.169919 0.2244184,-0.335474 0.3425674,-0.501783 0.096029,-0.135165 0.2005187,-0.264722 0.2992827,-0.401239 0.1007323,-0.139236 0.1989431,-0.282608 0.2984674,-0.426712 0.1062162,-0.153864 0.214094,-0.308542 0.3190137,-0.467608 0.1343645,-0.2035903 0.265889,-0.4126267 0.4021493,-0.621524 0.019594,-0.030086 0.046953,-0.055035 0.070718,-0.082402 0.00423,0.00229 0.00846,0.00467 0.01282,0.00696 -5.419e-4,0.021814 -2.119e-4,0.043549 -0.00162,0.06544 -0.020698,0.3253419 -0.039906,0.6500491 -0.064276,0.9745181 -0.00361,0.04751 -0.024629,0.101094 -0.050798,0.142816 -0.1053858,0.168622 -0.2118936,0.334658 -0.3226671,0.495039 -0.1040648,0.150654 -0.2143872,0.294248 -0.3205711,0.439023 -0.086808,0.118308 -0.1726903,0.235884 -0.2587512,0.352025 -0.059367,0.08011 -0.1209692,0.157443 -0.1785675,0.237833 -0.080094,0.111937 -0.1599481,0.223224 -0.234368,0.337626 -0.089162,0.136999 -0.1764431,0.274391 -0.2565474,0.415327 -0.05697,0.100215 -0.1033968,0.207968 -0.1519307,0.312974 -0.026817,0.05808 -0.051819,0.117497 -0.072408,0.178471 -0.036403,0.107935 -0.066873,0.218156 -0.1030695,0.325429 -0.101164,0.299553 -0.1023373,0.6167 -0.1023396,0.930143 -2.4e-6,0.159138 0.039261,0.322197 0.070918,0.481731 0.044512,0.224146 0.1320164,0.431658 0.2334453,0.636036 0.069761,0.140646 0.151226,0.271866 0.2457929,0.392937 0.078454,0.100275 0.1651054,0.195899 0.2578118,0.281214 0.1063924,0.09787 0.2186322,0.194004 0.3390993,0.269755 0.1299308,0.08171 0.2698676,0.151924 0.412417,0.202625 0.1719346,0.06112 0.3515638,0.09449 0.5313355,0.142443 0.1692965,0.04508 0.3386993,0.04436 0.510421,0.04537 0.2214425,0.0013 0.4311242,-0.05574 0.6391262,-0.12454 0.253173,-0.0837 0.475171,-0.232688 0.676092,-0.413435 0.208575,-0.187644 0.390766,-0.41139 0.516345,-0.672474 0.13373,-0.278065 0.250499,-0.571744 0.259454,-0.900275 0.0047,-0.177686 0.02754,-0.354611 0.02341,-0.532339 -0.0031,-0.130845 -0.03151,-0.262462 -0.05743,-0.3921 -0.03034,-0.151962 -0.06154,-0.304198 -0.107818,-0.451192 -0.04591,-0.145943 -0.10749,-0.286542 -0.1676,-0.426307 -0.05301,-0.123276 -0.108282,-0.245378 -0.171544,-0.362115 -0.0766,-0.14129 -0.157955,-0.279417 -0.244627,-0.4121 -0.130127,-0.199277 -0.26762,-0.390439 -0.396764,-0.584545 C 10.4057,11.469528 10.258155,11.24693 10.117554,11.022879 9.9974034,10.83162 9.884818,10.637198 9.7732078,10.444602 c -0.017836,-0.03074 -0.030941,-0.07164 -0.028847,-0.108703 0.021039,-0.3607365 0.045748,-0.7223526 0.069874,-1.0846132 7.964e-4,-0.012091 0.00449,-0.024572 0.01066,-0.05717 z"
       id="path3143"
       style="display:inline;isolation:isolate;mix-blend-mode:normal;fill:url(#linear-gradient);stroke-width:0.999997;filter:url(#filter4)"
       inkscape:label="Hyprland"
       inkscape:original-d="m 10.577422,8.9705862 c 0.0241,0.02978 0.03978,0.044455 0.05011,0.062359 0.187277,0.3278153 0.371251,0.6577994 0.561811,0.9837088 0.109683,0.187604 0.227589,0.370308 0.345922,0.55251 0.114394,0.176466 0.236235,0.347851 0.350759,0.524327 0.132462,0.204098 0.266962,0.407273 0.388588,0.617952 0.155784,0.269939 0.312839,0.5405 0.444245,0.822747 0.111719,0.23998 0.196709,0.493971 0.277277,0.747259 0.05702,0.179303 0.09061,0.366849 0.127494,0.552226 0.01707,0.08593 0.01734,0.175364 0.02469,0.263156 0.0091,0.107504 0.02979,0.215801 0.02414,0.322552 -0.01458,0.278034 -0.01,0.558326 -0.0768,0.831559 -0.07363,0.301278 -0.181817,0.587112 -0.332195,0.859639 -0.152018,0.275346 -0.330527,0.527009 -0.543656,0.756561 -0.193111,0.208009 -0.414576,0.375553 -0.652006,0.526805 -0.174319,0.110964 -0.356916,0.202837 -0.549287,0.272579 -0.17309,0.06268 -0.350265,0.11028 -0.531911,0.148381 -0.410137,0.08576 -0.8197329,0.08254 -1.2284606,0.02488 C 9.011745,17.805057 8.7633635,17.757 8.5337416,17.6504 8.3450042,17.562747 8.1547628,17.475927 7.9758096,17.370294 7.8344825,17.286986 7.7005869,17.185527 7.5791863,17.074405 7.4199427,16.928691 7.2643898,16.775368 7.1294552,16.607082 7.0085486,16.456416 6.9065554,16.286936 6.8164323,16.114943 6.7214471,15.933419 6.639837,15.742825 6.5718533,15.549038 6.4983652,15.339816 6.4566169,15.121989 6.4256937,14.899713 c -0.048155,-0.345929 -0.00145,-0.685578 0.036689,-1.024752 0.021862,-0.194781 0.086235,-0.386759 0.148201,-0.57424 0.065303,-0.197778 0.1412446,-0.39349 0.2299389,-0.581659 C 6.9293676,12.530638 7.030156,12.346236 7.143021,12.171596 7.2847194,11.95244 7.4389014,11.74094 7.5971358,11.533585 7.7407836,11.345211 7.8944214,11.164458 8.0486404,10.98481 8.1728429,10.840136 8.3068407,10.704002 8.4324087,10.560487 8.5594054,10.415341 8.682192,10.266436 8.8055951,10.11811 8.9361713,9.9610837 9.0676169,9.8047806 9.1943392,9.6445561 9.3550361,9.4415023 9.5106345,9.2342314 9.6700887,9.0301596 c 0.022785,-0.029211 0.054539,-0.051407 0.082064,-0.076822 0.00489,0.00324 0.00979,0.00659 0.014827,0.00985 -6.264e-4,0.023542 -2.45e-4,0.047155 -0.00187,0.070629 -0.023949,0.3492148 -0.046209,0.698547 -0.074502,1.0474654 -0.0042,0.05114 -0.02865,0.106627 -0.059154,0.148629 -0.1235015,0.170709 -0.2493987,0.339919 -0.3815065,0.503901 -0.1252065,0.1554 -0.2591206,0.303668 -0.3891724,0.455 -0.1071779,0.124661 -0.2139794,0.249481 -0.3217774,0.373567 -0.074818,0.08612 -0.1528496,0.169348 -0.2261781,0.256768 -0.1025649,0.122447 -0.2055206,0.245 -0.3021036,0.372259 -0.1165286,0.153465 -0.2314672,0.308639 -0.337719,0.469344 -0.076016,0.114952 -0.1382415,0.239518 -0.2035608,0.361338 -0.036211,0.0676 -0.070046,0.136951 -0.097966,0.208316 -0.049487,0.126645 -0.091029,0.256369 -0.1405235,0.383013 -0.1391677,0.355788 -0.140789,0.731595 -0.1407922,1.102986 -3.4e-6,0.188558 0.054162,0.378857 0.097699,0.564959 0.061011,0.260599 0.1802574,0.496168 0.3173433,0.724705 0.093585,0.156109 0.2021564,0.298859 0.3272341,0.427157 0.1029961,0.105456 0.2159503,0.203731 0.3358749,0.288631 0.1364671,0.09657 0.2791067,0.189434 0.4307064,0.257199 0.1617998,0.07233 0.3341081,0.12953 0.5075873,0.164027 0.2065444,0.04104 0.4192467,0.04998 0.6290288,0.0746 0.1947926,0.02277 0.387078,-0.0038 0.579365,-0.02851 0.244139,-0.0314 0.471435,-0.121508 0.693277,-0.22213 0.265259,-0.120278 0.493667,-0.300801 0.697102,-0.507969 0.207959,-0.211785 0.38698,-0.453685 0.508974,-0.72444 0.128675,-0.285619 0.240001,-0.582697 0.2485,-0.905792 0.0045,-0.174654 0.0261,-0.3492 0.02219,-0.523371 -0.0029,-0.12826 -0.02988,-0.25672 -0.05451,-0.383549 -0.02889,-0.148976 -0.05866,-0.298547 -0.102948,-0.443257 -0.04408,-0.144162 -0.10345,-0.28365 -0.161658,-0.422924 -0.05155,-0.123357 -0.105513,-0.246081 -0.16755,-0.364165 -0.07551,-0.143667 -0.156179,-0.285158 -0.242664,-0.422252 -0.130907,-0.207586 -0.270627,-0.409389 -0.403197,-0.61576 -0.155238,-0.241651 -0.310068,-0.483539 -0.459258,-0.729037 -0.128785,-0.211706 -0.250559,-0.427861 -0.372341,-0.643881 -0.01956,-0.03466 -0.03395,-0.0795 -0.03165,-0.118386 0.02309,-0.3780591 0.05016,-0.7558431 0.07654,-1.1336745 8.7e-4,-0.0126 0.0049,-0.025109 0.01164,-0.058367 z"
       inkscape:path-effect="#path-effect5157"
       transform="matrix(1.4028355,0,0,1.2867782,2.1914275,-1.1114946)" /></g></svg>
